<svg id="interface_2_" data-name="interface (2)" xmlns="http://www.w3.org/2000/svg" width="22" height="22" viewBox="0 0 22 22">
  <g id="Group_15" data-name="Group 15">
    <g id="Group_14" data-name="Group 14">
      <path id="Path_22" data-name="Path 22" d="M19.422,1.719H18.391V0H16.672V1.719H5.328V0H3.609V1.719H2.578A2.581,2.581,0,0,0,0,4.3V19.422A2.581,2.581,0,0,0,2.578,22H19.422A2.581,2.581,0,0,0,22,19.422V4.3A2.581,2.581,0,0,0,19.422,1.719Zm.859,17.7a.86.86,0,0,1-.859.859H2.578a.86.86,0,0,1-.859-.859V8.078H20.281Zm0-13.062H1.719V4.3a.86.86,0,0,1,.859-.859H3.609V5.156H5.328V3.438H16.672V5.156h1.719V3.438h1.031a.86.86,0,0,1,.859.859Z" fill="#fff"/>
    </g>
  </g>
  <g id="Group_17" data-name="Group 17" transform="translate(3.727 10)">
    <g id="Group_16" data-name="Group 16">
      <rect id="Rectangle_17" data-name="Rectangle 17" width="2" height="2" fill="#fff"/>
    </g>
  </g>
  <g id="Group_19" data-name="Group 19" transform="translate(6.857 10)">
    <g id="Group_18" data-name="Group 18">
      <rect id="Rectangle_18" data-name="Rectangle 18" width="2" height="2" fill="#fff"/>
    </g>
  </g>
  <g id="Group_21" data-name="Group 21" transform="translate(10 10)">
    <g id="Group_20" data-name="Group 20">
      <rect id="Rectangle_19" data-name="Rectangle 19" width="2" height="2" fill="#fff"/>
    </g>
  </g>
  <g id="Group_23" data-name="Group 23" transform="translate(13.143 10)">
    <g id="Group_22" data-name="Group 22">
      <rect id="Rectangle_20" data-name="Rectangle 20" width="2" height="2" fill="#fff"/>
    </g>
  </g>
  <g id="Group_25" data-name="Group 25" transform="translate(16.273 10)">
    <g id="Group_24" data-name="Group 24">
      <rect id="Rectangle_21" data-name="Rectangle 21" width="2" height="2" fill="#fff"/>
    </g>
  </g>
  <g id="Group_27" data-name="Group 27" transform="translate(3.727 13.143)">
    <g id="Group_26" data-name="Group 26">
      <rect id="Rectangle_22" data-name="Rectangle 22" width="2" height="2" fill="#fff"/>
    </g>
  </g>
  <g id="Group_29" data-name="Group 29" transform="translate(6.857 13.143)">
    <g id="Group_28" data-name="Group 28">
      <rect id="Rectangle_23" data-name="Rectangle 23" width="2" height="2" fill="#fff"/>
    </g>
  </g>
  <g id="Group_31" data-name="Group 31" transform="translate(10 13.143)">
    <g id="Group_30" data-name="Group 30">
      <rect id="Rectangle_24" data-name="Rectangle 24" width="2" height="2" fill="#fff"/>
    </g>
  </g>
  <g id="Group_33" data-name="Group 33" transform="translate(13.143 13.143)">
    <g id="Group_32" data-name="Group 32">
      <rect id="Rectangle_25" data-name="Rectangle 25" width="2" height="2" fill="#fff"/>
    </g>
  </g>
  <g id="Group_35" data-name="Group 35" transform="translate(3.727 16.286)">
    <g id="Group_34" data-name="Group 34">
      <rect id="Rectangle_26" data-name="Rectangle 26" width="2" height="2" fill="#fff"/>
    </g>
  </g>
  <g id="Group_37" data-name="Group 37" transform="translate(6.857 16.286)">
    <g id="Group_36" data-name="Group 36">
      <rect id="Rectangle_27" data-name="Rectangle 27" width="2" height="2" fill="#fff"/>
    </g>
  </g>
  <g id="Group_39" data-name="Group 39" transform="translate(10 16.286)">
    <g id="Group_38" data-name="Group 38">
      <rect id="Rectangle_28" data-name="Rectangle 28" width="2" height="2" fill="#fff"/>
    </g>
  </g>
  <g id="Group_41" data-name="Group 41" transform="translate(13.143 16.286)">
    <g id="Group_40" data-name="Group 40">
      <rect id="Rectangle_29" data-name="Rectangle 29" width="2" height="2" fill="#fff"/>
    </g>
  </g>
  <g id="Group_43" data-name="Group 43" transform="translate(16.273 13.143)">
    <g id="Group_42" data-name="Group 42">
      <rect id="Rectangle_30" data-name="Rectangle 30" width="2" height="2" fill="#fff"/>
    </g>
  </g>
</svg>
