<svg id="phone" xmlns="http://www.w3.org/2000/svg" width="19.034" height="19.074" viewBox="0 0 19.034 19.074">
  <g id="Group_72" data-name="Group 72">
    <path id="Path_28" data-name="Path 28" d="M19.074,14l-2.662-2.662A1.77,1.77,0,0,0,13.465,12a1.812,1.812,0,0,1-2.091,1.141A8.208,8.208,0,0,1,6.43,8.2,1.723,1.723,0,0,1,7.571,6.108a1.77,1.77,0,0,0,.665-2.947L5.575.5A1.9,1.9,0,0,0,3.008.5L1.2,2.305c-1.806,1.9.19,6.94,4.658,11.408s9.507,6.56,11.408,4.658l1.806-1.806A1.9,1.9,0,0,0,19.074,14Z" transform="translate(-0.539 0)" fill="#55cfa9"/>
  </g>
</svg>
