<svg id="mail" xmlns="http://www.w3.org/2000/svg" width="20.787" height="15.833" viewBox="0 0 20.787 15.833">
  <g id="Group_78" data-name="Group 78" transform="translate(1.044 6.342)">
    <g id="Group_77" data-name="Group 77">
      <path id="Path_29" data-name="Path 29" d="M43.636,70.492H26.5a1.806,1.806,0,0,1-.783-.183L35.029,61l2.086,2.005h0l7.3,7.3A1.806,1.806,0,0,1,43.636,70.492Z" transform="translate(-25.721 -61)" fill="#55cfa9"/>
    </g>
  </g>
  <g id="Group_80" data-name="Group 80" transform="translate(13.731 1.044)">
    <g id="Group_79" data-name="Group 79">
      <path id="Path_30" data-name="Path 30" d="M345.086,100.473,338.213,93.6l6.872-6.872a1.805,1.805,0,0,1,.183.783V99.69A1.806,1.806,0,0,1,345.086,100.473Z" transform="translate(-338.213 -86.728)" fill="#55cfa9"/>
    </g>
  </g>
  <g id="Group_82" data-name="Group 82" transform="translate(0 1.044)">
    <g id="Group_81" data-name="Group 81">
      <path id="Path_31" data-name="Path 31" d="M.183,100.466A1.806,1.806,0,0,1,0,99.683V87.5a1.806,1.806,0,0,1,.183-.783l6.873,6.872Z" transform="translate(0 -86.721)" fill="#55cfa9"/>
    </g>
  </g>
  <g id="Group_84" data-name="Group 84" transform="translate(1.044 0)">
    <g id="Group_83" data-name="Group 83">
      <path id="Path_32" data-name="Path 32" d="M37.54,284.267l-2.087-2.005a.609.609,0,0,0-.861,0l-2.005,2.005-6.873-6.872a1.806,1.806,0,0,1,.783-.183H43.63a1.806,1.806,0,0,1,.783.183Z" transform="translate(-25.714 -277.211)" fill="#55cfa9"/>
    </g>
  </g>
</svg>
