<svg xmlns="http://www.w3.org/2000/svg" width="30.039" height="26.109" viewBox="0 0 30.039 26.109">
  <g id="paper-plane" transform="translate(-0.001 -33.492)">
    <path id="Path_34" data-name="Path 34" d="M30.02,34.558a.881.881,0,0,0-1.174-1.008L.567,44.346a.88.88,0,0,0,0,1.643l7.944,3.068v9.664a.88.88,0,0,0,1.666.4l3.286-6.52,8.018,5.95a.881.881,0,0,0,1.366-.45C30.33,33.553,30.006,34.62,30.02,34.558Zm-6.981,3.093L9.263,47.462,3.336,45.173ZM10.268,48.907l12.008-8.551c-10.332,10.9-9.793,10.326-9.838,10.387-.067.09.116-.261-2.17,4.276ZM21.524,56.39l-7.058-5.238L27.228,37.69Z" fill="#fff"/>
  </g>
</svg>
