<svg xmlns="http://www.w3.org/2000/svg" width="22.094" height="22.094" viewBox="0 0 22.094 22.094">
  <g id="symbol" transform="translate(0)">
    <path id="Path_20" data-name="Path 20" d="M19.769,5.813a.92.92,0,0,0-.428,1.229,9.112,9.112,0,0,1,.911,4,9.206,9.206,0,1,1-9.206-9.206,9.1,9.1,0,0,1,5.715,1.986.92.92,0,1,0,1.146-1.441,11.048,11.048,0,1,0,4.186,8.661A10.934,10.934,0,0,0,21,6.241a.92.92,0,0,0-1.229-.428Zm0,0" transform="translate(0 0)" fill="#fff"/>
    <path id="Path_21" data-name="Path 21" d="M176.921,64a.921.921,0,0,0-.921.921v6.444a.921.921,0,0,0,.921.921h4.6a.921.921,0,1,0,0-1.841h-3.682V64.921A.921.921,0,0,0,176.921,64Zm0,0" transform="translate(-165.873 -60.318)" fill="#fff"/>
  </g>
</svg>
