<svg xmlns="http://www.w3.org/2000/svg" width="96.443" height="59.861" viewBox="0 0 96.443 59.861">
  <g id="sports" transform="translate(-8.533 -98.134)">
    <g id="Group_7" data-name="Group 7" transform="translate(8.533 121.413)">
      <rect id="Rectangle_6" data-name="Rectangle 6" width="8.314" height="13.302" transform="translate(0)" fill="#223947"/>
      <rect id="Rectangle_7" data-name="Rectangle 7" width="8.314" height="13.302" transform="translate(88.128)" fill="#223947"/>
      <rect id="Rectangle_8" data-name="Rectangle 8" width="39.907" height="13.302" transform="translate(28.268)" fill="#223947"/>
    </g>
    <path id="Path_16" data-name="Path 16" d="M100.518,157.995h0a6.651,6.651,0,0,1-6.651-6.651V104.785a6.651,6.651,0,0,1,6.651-6.651h0a6.651,6.651,0,0,1,6.651,6.651v46.558A6.651,6.651,0,0,1,100.518,157.995Z" transform="translate(-68.706)" fill="#55cfa9"/>
    <path id="Path_17" data-name="Path 17" d="M47.655,199.656h0a4.988,4.988,0,0,1-4.988-4.988V171.388a4.988,4.988,0,0,1,4.988-4.988h0a4.988,4.988,0,0,1,4.988,4.988v23.279A4.988,4.988,0,0,1,47.655,199.656Z" transform="translate(-27.483 -54.964)" fill="#7bdbb3"/>
    <path id="Path_18" data-name="Path 18" d="M356.518,157.995h0a6.651,6.651,0,0,0,6.651-6.651V104.785a6.651,6.651,0,0,0-6.651-6.651h0a6.651,6.651,0,0,0-6.651,6.651v46.558A6.651,6.651,0,0,0,356.518,157.995Z" transform="translate(-274.822)" fill="#55cfa9"/>
    <path id="Path_19" data-name="Path 19" d="M423.121,199.656h0a4.988,4.988,0,0,0,4.988-4.988V171.388a4.988,4.988,0,0,0-4.988-4.988h0a4.988,4.988,0,0,0-4.988,4.988v23.279A4.988,4.988,0,0,0,423.121,199.656Z" transform="translate(-329.786 -54.964)" fill="#7bdbb3"/>
  </g>
</svg>
