<svg xmlns="http://www.w3.org/2000/svg" width="20.549" height="24.63" viewBox="0 0 20.549 24.63">
  <g id="social" transform="translate(0 0)">
    <path id="Path_23" data-name="Path 23" d="M92.964,11.865a5.74,5.74,0,0,0,4.195-1.738A5.74,5.74,0,0,0,98.9,5.932a5.741,5.741,0,0,0-1.738-4.194,5.931,5.931,0,0,0-8.389,0,5.74,5.74,0,0,0-1.738,4.194,5.74,5.74,0,0,0,1.738,4.195A5.741,5.741,0,0,0,92.964,11.865Zm0,0" transform="translate(-82.845 0)" fill="#55cfa9"/>
    <path id="Path_24" data-name="Path 24" d="M20.5,254.358a14.652,14.652,0,0,0-.2-1.556,12.263,12.263,0,0,0-.383-1.565,7.729,7.729,0,0,0-.643-1.459,5.508,5.508,0,0,0-.97-1.264,4.277,4.277,0,0,0-1.393-.875,4.816,4.816,0,0,0-1.779-.322,1.805,1.805,0,0,0-.964.409c-.289.188-.627.406-1,.648a5.754,5.754,0,0,1-1.3.573,5.047,5.047,0,0,1-3.179,0,5.741,5.741,0,0,1-1.3-.572c-.374-.239-.712-.457-1.005-.648a1.8,1.8,0,0,0-.964-.409,4.809,4.809,0,0,0-1.779.322,4.273,4.273,0,0,0-1.394.875,5.507,5.507,0,0,0-.97,1.264,7.744,7.744,0,0,0-.643,1.46A12.291,12.291,0,0,0,.249,252.8a14.6,14.6,0,0,0-.2,1.557c-.033.471-.049.96-.049,1.454a4.09,4.09,0,0,0,1.215,3.094,4.373,4.373,0,0,0,3.13,1.142H16.2a4.372,4.372,0,0,0,3.13-1.142,4.088,4.088,0,0,0,1.215-3.094c0-.5-.017-.986-.05-1.455Zm0,0" transform="translate(0 -235.419)" fill="#55cfa9"/>
  </g>
</svg>
